<?xml version="1.0" encoding="UTF-8" standalone="no"?>
<svg
   xmlns:dc="http://purl.org/dc/elements/1.1/"
   xmlns:cc="http://creativecommons.org/ns#"
   xmlns:rdf="http://www.w3.org/1999/02/22-rdf-syntax-ns#"
   xmlns:svg="http://www.w3.org/2000/svg"
   xmlns="http://www.w3.org/2000/svg"
   xmlns:xlink="http://www.w3.org/1999/xlink"
   xmlns:sodipodi="http://sodipodi.sourceforge.net/DTD/sodipodi-0.dtd"
   xmlns:inkscape="http://www.inkscape.org/namespaces/inkscape"
   version="1.2"
   width="382"
   height="122"
   viewBox="0 0 61.349213 19.593204"
   id="svg2"
   inkscape:version="0.48.4 r9939"
   sodipodi:docname="p103s1.svg">
  <metadata
     id="metadata130">
    <rdf:RDF>
      <cc:Work
         rdf:about="">
        <dc:format>image/svg+xml</dc:format>
        <dc:type
           rdf:resource="http://purl.org/dc/dcmitype/StillImage" />
        <dc:title></dc:title>
      </cc:Work>
    </rdf:RDF>
  </metadata>
  <defs
     id="defs128" />
  <sodipodi:namedview
     pagecolor="#ffffff"
     bordercolor="#666666"
     borderopacity="1"
     objecttolerance="10"
     gridtolerance="10"
     guidetolerance="10"
     inkscape:pageopacity="0"
     inkscape:pageshadow="2"
     inkscape:window-width="1920"
     inkscape:window-height="1020"
     id="namedview126"
     showgrid="false"
     inkscape:snap-grids="false"
     showborder="false"
     inkscape:zoom="2.68"
     inkscape:cx="238.6538"
     inkscape:cy="55.426474"
     inkscape:window-x="-3"
     inkscape:window-y="-3"
     inkscape:window-maximized="1"
     inkscape:current-layer="g3118-3">
    <inkscape:grid
       type="xygrid"
       id="grid3107"
       empspacing="5"
       visible="true"
       enabled="true"
       snapvisiblegridlinesonly="true" />
  </sodipodi:namedview>
  <!-- Page: 1/1 -->
  <text
     font-size="2.1995"
     id="text4"
     style="font-size:2.19950008px;text-anchor:start;fill:currentColor;font-family:Century Schoolbook L"
     x="5.6905999"
     y="-146.57088">
    <tspan
       id="tspan6" />
  </text>
  <a
     transform="translate(31.6841,15.735001)"
     xlink:href="http://lilypond.org/"
     id="a118">
    <rect
       x="0"
       y="-0.44389999"
       width="56.133499"
       height="2.0827"
       id="rect120"
       style="fill:none;stroke:none" />
  </a>
  <g
     id="g3192"
     transform="translate(-12.591043,3.0253507)">
    <g
       id="g3052-3"
       transform="translate(-0.65717357,4.738599)" />
    <g
       id="g3194">
      <g
         transform="translate(-10.496928,27.294328)"
         id="g3052-6-3">
        <g
           id="g3118-3">
          <g
             id="g3344"
             transform="translate(11.625525,-3.8352247)">
            <g
               transform="translate(-21.032638,-27.254965)"
               id="g3188">
              <rect
                 style="fill:currentColor"
                 transform="translate(92.3271,9.7886)"
                 x="0"
                 y="-2"
                 width="0.19"
                 height="4"
                 ry="0"
                 id="rect14" />
              <rect
                 style="fill:currentColor"
                 transform="translate(91.8371,9.7886)"
                 x="0"
                 y="-2"
                 width="0.19"
                 height="4"
                 ry="0"
                 id="rect16" />
            </g>
            <line
               style="stroke:currentColor;stroke-width:0.09999998;stroke-linecap:round;stroke-linejoin:round"
               id="line22"
               y2="11.7886"
               x2="60.936188"
               y1="11.7886"
               x1="14.2764"
               transform="translate(10.496928,-27.294328)" />
            <line
               style="stroke:currentColor;stroke-width:0.09999998;stroke-linecap:round;stroke-linejoin:round"
               id="line24"
               y2="10.7886"
               x2="60.936188"
               y1="10.7886"
               x1="14.2764"
               transform="translate(10.496928,-27.294328)" />
            <line
               style="stroke:currentColor;stroke-width:0.09999998;stroke-linecap:round;stroke-linejoin:round"
               id="line26"
               y2="9.7886"
               x2="60.936188"
               y1="9.7886"
               x1="14.2764"
               transform="translate(10.496928,-27.294328)" />
            <line
               style="stroke:currentColor;stroke-width:0.09999998;stroke-linecap:round;stroke-linejoin:round"
               id="line28"
               y2="8.7886"
               x2="60.936188"
               y1="8.7886"
               x1="14.2764"
               transform="translate(10.496928,-27.294328)" />
            <line
               style="stroke:currentColor;stroke-width:0.09999998;stroke-linecap:round;stroke-linejoin:round"
               id="line30"
               y2="7.7886"
               x2="60.936188"
               y1="7.7886"
               x1="14.2764"
               transform="translate(10.496928,-27.294328)" />
            <rect
               style="fill:currentColor"
               id="rect32"
               ry="0.1"
               height="0.2"
               width="2.97"
               y="12.649238"
               x="21.751352"
               transform="translate(10.496928,-27.294328)" />
            <rect
               style="fill:currentColor"
               id="rect34"
               ry="0.1"
               height="0.2"
               width="2.6500001"
               y="13.649238"
               x="22.071352"
               transform="translate(10.496928,-27.294328)" />
            <rect
               style="fill:currentColor"
               id="rect36"
               ry="0.1"
               height="0.2"
               width="2.97"
               y="6.6098747"
               x="53.36692"
               transform="translate(10.496928,-27.294328)" />
            <path
               style="fill:currentColor"
               inkscape:connector-curvature="0"
               id="path60"
               d="m 44.1109,5.80848 c 0.1888,0 0.368,0.1024 0.368,0.3104 0,0.2304 -0.1728,0.3872 -0.3232,0.4768 -0.112,0.0672 -0.2368,0.1088 -0.3648,0.1088 -0.1888,0 -0.3648,-0.1024 -0.3648,-0.3104 0,-0.2304 0.1728,-0.3872 0.3232,-0.4768 0.112,-0.0672 0.2336,-0.1088 0.3616,-0.1088 z"
               transform="translate(10.496928,-27.294328)" />
            <path
               style="fill:currentColor"
               inkscape:connector-curvature="0"
               id="path62"
               d="m 55.01032,4.6494545 c 0.1888,0 0.368,0.1024 0.368,0.3104 0,0.2304 -0.1728,0.3872 -0.3232,0.4768 -0.112,0.0672 -0.2368,0.1088 -0.3648,0.1088 -0.1888,0 -0.3648,-0.1024 -0.3648,-0.3104 0,-0.2304 0.1728,-0.3872 0.3232,-0.4768 0.112,-0.0672 0.2336,-0.1088 0.3616,-0.1088 z"
               transform="translate(10.496928,-27.294328)" />
            <path
               style="fill:currentColor"
               inkscape:connector-curvature="0"
               id="path64"
               d="m 53.092913,6.1984345 c -0.0384,0 -0.0672,-0.0288 -0.0672,-0.0672 v -0.4416 l -0.2528,0.096 v 0.4928 c 0,0.0384 -0.0288,0.0672 -0.0672,0.0672 -0.0384,0 -0.0672,-0.0288 -0.0672,-0.0672 v -0.4416 l -0.0704,0.0256 c -0.0096,0.0032 -0.0192,0.0064 -0.0288,0.0064 -0.0416,0 -0.08,-0.0352 -0.08,-0.08 v -0.1728 c 0,-0.032 0.0192,-0.064 0.0512,-0.0768 l 0.128,-0.048 v -0.496 l -0.0704,0.0288 c -0.0096,0.0032 -0.0192,0.0032 -0.0288,0.0032 -0.0416,0 -0.08,-0.0352 -0.08,-0.08 v -0.1728 c 0,-0.032 0.0192,-0.0608 0.0512,-0.0736 l 0.128,-0.048 v -0.4928 c 0,-0.0384 0.0288,-0.0672 0.0672,-0.0672 0.0384,0 0.0672,0.0288 0.0672,0.0672 v 0.4416 l 0.2528,-0.096 v -0.4928 c 0,-0.0384 0.0288,-0.0672 0.0672,-0.0672 0.0384,0 0.0672,0.0288 0.0672,0.0672 v 0.4416 l 0.0704,-0.0256 c 0.0096,-0.0032 0.0192,-0.0064 0.0288,-0.0064 0.0416,0 0.08,0.0352 0.08,0.08 v 0.1728 c 0,0.032 -0.0192,0.064 -0.0512,0.0768 l -0.128,0.048 v 0.496 l 0.0704,-0.0288 c 0.0096,-0.0032 0.0192,-0.0032 0.0288,-0.0032 0.0416,0 0.08,0.0352 0.08,0.08 v 0.1728 c 0,0.032 -0.0192,0.0608 -0.0512,0.0736 l -0.128,0.048 v 0.4928 c 0,0.0384 -0.0288,0.0672 -0.0672,0.0672 z m -0.32,-1.2512 v 0.4928 l 0.2528,-0.096 v -0.4928 z"
               transform="translate(10.496928,-27.294328)" />
            <path
               style="fill:currentColor"
               inkscape:connector-curvature="0"
               id="path66"
               d="m 55.01032,3.6333945 c 0.1888,0 0.368,0.1024 0.368,0.3104 0,0.2304 -0.1728,0.3872 -0.3232,0.4768 -0.112,0.0672 -0.2368,0.1088 -0.3648,0.1088 -0.1888,0 -0.3648,-0.1024 -0.3648,-0.3104 0,-0.2304 0.1728,-0.3872 0.3232,-0.4768 0.112,-0.0672 0.2336,-0.1088 0.3616,-0.1088 z"
               transform="translate(10.496928,-27.294328)" />
            <path
               style="fill:currentColor"
               inkscape:connector-curvature="0"
               id="path68"
               d="m 31.5335,10.8406 c 0.1888,0 0.368,0.1024 0.368,0.3104 0,0.2304 -0.1728,0.3872 -0.3232,0.4768 -0.112,0.0672 -0.2368,0.1088 -0.3648,0.1088 -0.1888,0 -0.3648,-0.1024 -0.3648,-0.3104 0,-0.2304 0.1728,-0.3872 0.3232,-0.4768 0.112,-0.0672 0.2336,-0.1088 0.3616,-0.1088 z"
               transform="translate(10.496928,-27.294328)" />
            <path
               style="fill:currentColor"
               inkscape:connector-curvature="0"
               id="path70"
               d="m 31.5335,9.8406 c 0.1888,0 0.368,0.1024 0.368,0.3104 0,0.2304 -0.1728,0.3872 -0.3232,0.4768 -0.112,0.0672 -0.2368,0.1088 -0.3648,0.1088 -0.1888,0 -0.3648,-0.1024 -0.3648,-0.3104 0,-0.2304 0.1728,-0.3872 0.3232,-0.4768 0.112,-0.0672 0.2336,-0.1088 0.3616,-0.1088 z"
               transform="translate(10.496928,-27.294328)" />
            <path
               style="fill:currentColor"
               inkscape:connector-curvature="0"
               id="path72"
               d="m 37.8222,8.82454 c 0.1888,0 0.368,0.1024 0.368,0.3104 0,0.2304 -0.1728,0.3872 -0.3232,0.4768 -0.112,0.0672 -0.2368,0.1088 -0.3648,0.1088 -0.1888,0 -0.3648,-0.1024 -0.3648,-0.3104 0,-0.2304 0.1728,-0.3872 0.3232,-0.4768 0.112,-0.0672 0.2336,-0.1088 0.3616,-0.1088 z"
               transform="translate(10.496928,-27.294328)" />
            <path
               style="fill:currentColor"
               inkscape:connector-curvature="0"
               id="path74"
               d="m 37.8222,7.82454 c 0.1888,0 0.368,0.1024 0.368,0.3104 0,0.2304 -0.1728,0.3872 -0.3232,0.4768 -0.112,0.0672 -0.2368,0.1088 -0.3648,0.1088 -0.1888,0 -0.3648,-0.1024 -0.3648,-0.3104 0,-0.2304 0.1728,-0.3872 0.3232,-0.4768 0.112,-0.0672 0.2336,-0.1088 0.3616,-0.1088 z"
               transform="translate(10.496928,-27.294328)" />
            <path
               style="fill:currentColor"
               inkscape:connector-curvature="0"
               id="path76"
               d="m 44.1109,6.8406 c 0.1888,0 0.368,0.1024 0.368,0.3104 0,0.2304 -0.1728,0.3872 -0.3232,0.4768 -0.112,0.0672 -0.2368,0.1088 -0.3648,0.1088 -0.1888,0 -0.3648,-0.1024 -0.3648,-0.3104 0,-0.2304 0.1728,-0.3872 0.3232,-0.4768 0.112,-0.0672 0.2336,-0.1088 0.3616,-0.1088 z"
               transform="translate(10.496928,-27.294328)" />
            <path
               id="path78"
               d="m 557,-125 c 0,28 23,51 51,51 28,0 51,-23 51,-51 0,-28 -23,-51 -51,-51 -28,0 -51,23 -51,51 z m 0,250 c 0,28 23,51 51,51 28,0 51,-23 51,-51 0,-28 -23,-51 -51,-51 -28,0 -51,23 -51,51 z M 232,263 c 172,0 293,-88 293,-251 0,-263 -263,-414 -516,-521 -3,-3 -6,-4 -9,-4 -7,0 -13,6 -13,13 0,3 1,6 4,9 202,118 412,265 412,493 0,120 -63,235 -171,235 -74,0 -129,-54 -154,-126 11,5 22,8 34,8 C 167,119 212,74 212,19 212,-39 168,-87 112,-87 52,-87 0,-40 0,19 0,152 102,263 232,263 z"
               transform="matrix(0.004,0,0,-0.004,25.523328,-18.505728)"
               inkscape:connector-curvature="0"
               style="fill:currentColor" />
            <path
               id="path92"
               d="m 215,112 c -50,0 -69,-43 -69,-88 0,-77 57,-136 134,-136 50,0 69,43 69,88 0,77 -57,136 -134,136 z M 495,0 c 0,-43 -35,-76 -73,-97 -53,-30 -113,-41 -174,-41 -61,0 -122,11 -175,41 -38,21 -73,54 -73,97 0,43 35,76 73,97 53,30 114,41 175,41 61,0 121,-11 174,-41 38,-21 73,-54 73,-97 z"
               transform="matrix(0.004,0,0,-0.004,47.170728,-17.005728)"
               inkscape:connector-curvature="0"
               style="fill:currentColor" />
            <path
               id="path94"
               d="m 215,112 c -50,0 -69,-43 -69,-88 0,-77 57,-136 134,-136 50,0 69,43 69,88 0,77 -57,136 -134,136 z M 495,0 c 0,-43 -35,-76 -73,-97 -53,-30 -113,-41 -174,-41 -61,0 -122,11 -175,41 -38,21 -73,54 -73,97 0,43 35,76 73,97 53,30 114,41 175,41 61,0 121,-11 174,-41 38,-21 73,-54 73,-97 z"
               transform="matrix(0.004,0,0,-0.004,53.459428,-19.005728)"
               inkscape:connector-curvature="0"
               style="fill:currentColor" />
            <path
               style="fill:currentColor"
               inkscape:connector-curvature="0"
               id="path96"
               d="m 21.204351,14.085237 -0.004,0.264 v 0.044 c 0,0.088 0.004,0.176 0.016,0.264 0.18,-0.152 0.372,-0.32 0.372,-0.556 0,-0.132 -0.056,-0.268 -0.172,-0.268 -0.124,0 -0.208,0.12 -0.212,0.252 z m -0.168,0.716 -0.048,-2.38 c 0.032,-0.02 0.072,-0.032 0.108,-0.032 0.036,0 0.076,0.012 0.108,0.032 l -0.028,1.38 c 0.1,-0.084 0.232,-0.136 0.364,-0.136 0.208,0 0.356,0.192 0.356,0.408 0,0.32 -0.344,0.468 -0.588,0.676 -0.06,0.052 -0.096,0.152 -0.18,0.152 -0.052,0 -0.092,-0.044 -0.092,-0.1 z"
               transform="translate(10.496928,-27.294328)" />
            <path
               id="path98"
               d="m 215,112 c -50,0 -69,-43 -69,-88 0,-77 57,-136 134,-136 50,0 69,43 69,88 0,77 -57,136 -134,136 z M 495,0 c 0,-43 -35,-76 -73,-97 -53,-30 -113,-41 -174,-41 -61,0 -122,11 -175,41 -38,21 -73,54 -73,97 0,43 35,76 73,97 53,30 114,41 175,41 61,0 121,-11 174,-41 38,-21 73,-54 73,-97 z"
               transform="matrix(0.004,0,0,-0.004,40.882028,-15.005728)"
               inkscape:connector-curvature="0"
               style="fill:currentColor" />
            <g
               transform="translate(-32.815071,-27.333691)"
               id="g3109">
              <rect
                 style="fill:currentColor"
                 transform="translate(5.6906,12.7886)"
                 x="60.075199"
                 y="-0.1"
                 width="1.5651"
                 height="0.2"
                 ry="0.1"
                 id="rect42" />
              <path
                 style="fill:currentColor"
                 inkscape:connector-curvature="0"
                 transform="matrix(0.0032,0,0,-0.0032,66.0266,13.2886)"
                 d="m 214,140 c 59,0 115,-32 115,-97 0,-72 -54,-121 -101,-149 -35,-21 -74,-34 -114,-34 -59,0 -114,32 -114,97 0,72 54,121 101,149 35,21 73,34 113,34 z"
                 id="path102" />
            </g>
            <path
               style="fill:currentColor"
               inkscape:connector-curvature="0"
               id="path104"
               d="m 23.394751,11.785177 c 0.1888,0 0.368,0.1024 0.368,0.3104 0,0.2304 -0.1728,0.3872 -0.3232,0.4768 -0.112,0.0672 -0.2368,0.1088 -0.3648,0.1088 -0.1888,0 -0.3648,-0.1024 -0.3648,-0.3104 0,-0.2304 0.1728,-0.3872 0.3232,-0.4768 0.112,-0.0672 0.2336,-0.1088 0.3616,-0.1088 z"
               transform="translate(10.496928,-27.294328)" />
            <path
               style="fill:currentColor"
               inkscape:connector-curvature="0"
               id="path106"
               d="m 23.106351,13.801237 c -0.2,0 -0.276,0.172 -0.276,0.352 0,0.308 0.228,0.544 0.536,0.544 0.2,0 0.276,-0.172 0.276,-0.352 0,-0.308 -0.228,-0.544 -0.536,-0.544 z m 1.12,0.448 c 0,0.172 -0.14,0.304 -0.292,0.388 -0.212,0.12 -0.452,0.164 -0.696,0.164 -0.244,0 -0.488,-0.044 -0.7,-0.164 -0.152,-0.084 -0.292,-0.216 -0.292,-0.388 0,-0.172 0.14,-0.304 0.292,-0.388 0.212,-0.12 0.456,-0.164 0.7,-0.164 0.244,0 0.484,0.044 0.696,0.164 0.152,0.084 0.292,0.216 0.292,0.388 z"
               transform="translate(10.496928,-27.294328)" />
            <path
               style="fill:currentColor"
               inkscape:connector-curvature="0"
               id="path108"
               d="m 54.72192,5.7618745 c -0.2,0 -0.276,0.172 -0.276,0.352 0,0.308 0.228,0.544 0.536,0.544 0.2,0 0.276,-0.172 0.276,-0.352 0,-0.308 -0.228,-0.544 -0.536,-0.544 z m 1.12,0.448 c 0,0.172 -0.14,0.304 -0.292,0.388 -0.212,0.12 -0.452,0.164 -0.696,0.164 -0.244,0 -0.488,-0.044 -0.7,-0.164 -0.152,-0.084 -0.292,-0.216 -0.292,-0.388 0,-0.172 0.14,-0.304 0.292,-0.388 0.212,-0.12 0.456,-0.164 0.7,-0.164 0.244,0 0.484,0.044 0.696,0.164 0.152,0.084 0.292,0.216 0.292,0.388 z"
               transform="translate(10.496928,-27.294328)" />
            <rect
               id="rect36-3"
               ry="0.1"
               height="0.2"
               width="2.97"
               y="5.5165005"
               x="53.36692"
               style="fill:currentColor"
               transform="translate(10.496928,-27.294328)" />
            <rect
               id="rect36-3-6"
               ry="0.1"
               height="0.2"
               width="2.97"
               y="4.4886603"
               x="53.36692"
               style="fill:currentColor"
               transform="translate(10.496928,-27.294328)" />
            <rect
               id="rect36-3-7"
               ry="0.1"
               height="0.2"
               width="2.97"
               y="6.6551867"
               x="42.551529"
               style="fill:currentColor"
               transform="translate(10.496928,-27.294328)" />
            <g
               id="g3052"
               transform="translate(10.077694,-26.297771)">
              <text
                 font-size="1.7455"
                 id="text112"
                 x="25.029421"
                 y="14.877373"
                 style="font-size:1.74549997px;font-style:normal;font-variant:normal;font-weight:normal;font-stretch:normal;text-anchor:start;fill:currentColor;font-family:Sans;-inkscape-font-specification:Sans">
                <tspan
                   id="tspan114"
                   style="font-size:1.28480029px;font-style:normal;font-variant:normal;font-weight:normal;font-stretch:normal;font-family:Sans;-inkscape-font-specification:Sans">éléments du ton</tspan>
              </text>
              <text
                 sodipodi:linespacing="125%"
                 id="text3040"
                 y="16.535734"
                 x="28.507416"
                 style="font-size:1.28480029px;font-style:normal;font-weight:normal;line-height:125%;letter-spacing:0px;word-spacing:0px;fill:#000000;fill-opacity:1;stroke:none;font-family:Sans"
                 xml:space="preserve"><tspan
                   y="16.535734"
                   x="28.507416"
                   id="tspan3042"
                   sodipodi:role="line">de <tspan
   id="tspan3050"
   style="font-style:italic;-inkscape-font-specification:Sans Italic">Fa</tspan></tspan></text>
            </g>
            <g
               id="g3094"
               transform="translate(29.204836,-28.529471)">
              <text
                 style="font-size:1.74549997px;font-style:normal;font-variant:normal;font-weight:normal;font-stretch:normal;text-anchor:start;fill:currentColor;font-family:Sans;-inkscape-font-specification:Sans"
                 y="14.877373"
                 x="25.029421"
                 id="text112-3"
                 font-size="1.7455">
                <tspan
                   style="font-size:1.28480029px;font-style:normal;font-variant:normal;font-weight:normal;font-stretch:normal;font-family:Sans;-inkscape-font-specification:Sans"
                   id="tspan114-38">éléments du ton</tspan>
              </text>
              <text
                 xml:space="preserve"
                 style="font-size:1.28480029px;font-style:normal;font-weight:normal;line-height:125%;letter-spacing:0px;word-spacing:0px;fill:#000000;fill-opacity:1;stroke:none;font-family:Sans"
                 x="28.253027"
                 y="16.535734"
                 id="text3040-0"
                 sodipodi:linespacing="125%"><tspan
                   sodipodi:role="line"
                   id="tspan3042-4"
                   x="28.253027"
                   y="16.535734">de <tspan
   id="tspan3092"
   style="font-style:italic;-inkscape-font-specification:Sans Italic">Sol</tspan></tspan></text>
            </g>
            <g
               id="g3052-6"
               transform="translate(22.400544,-22.781406)">
              <g
                 id="g3118">
                <text
                   style="font-size:1.74549997px;font-style:normal;font-variant:normal;font-weight:normal;font-stretch:normal;text-anchor:start;fill:currentColor;font-family:Sans;-inkscape-font-specification:Sans"
                   y="0.7445696"
                   x="17.609699"
                   id="text112-8"
                   font-size="1.7455">
                  <tspan
                     style="font-size:1.28480029px;font-style:normal;font-variant:normal;font-weight:normal;font-stretch:normal;font-family:Sans;-inkscape-font-specification:Sans"
                     id="tspan114-9">éléments du ton d’<tspan
   style="font-style:italic;-inkscape-font-specification:Sans Italic"
   id="tspan3125">Ut</tspan>
</tspan>
                </text>
                <text
                   xml:space="preserve"
                   style="font-size:1.28480029px;font-style:normal;font-weight:normal;line-height:125%;letter-spacing:0px;word-spacing:0px;fill:#000000;fill-opacity:1;stroke:none;font-family:Sans"
                   x="28.486713"
                   y="16.535734"
                   id="text3040-06"
                   sodipodi:linespacing="125%"><tspan
                     sodipodi:role="line"
                     id="tspan3042-8"
                     x="28.486713"
                     y="16.535734" /></text>
              </g>
            </g>
            <path
               sodipodi:nodetypes="ccc"
               style="fill:currentColor;stroke:currentColor;stroke-width:0.1;stroke-linecap:round;stroke-linejoin:round"
               inkscape:connector-curvature="0"
               id="path116-9"
               d="M 27.720556,7.3734194 C 26.856361,-0.39681678 46.870139,2.1325639 46.76574,7.2861934 47.125903,2.1121658 27.114183,-0.40013501 27.720556,7.3734194 z"
               transform="translate(10.496928,-27.294328)" />
            <path
               sodipodi:nodetypes="ccc"
               style="fill:currentColor;stroke:currentColor;stroke-width:0.1;stroke-linecap:round;stroke-linejoin:round"
               inkscape:connector-curvature="0"
               id="path116-9-0"
               d="m 58.77985,12.140723 c -1.645708,8.249619 -21.921088,8.132052 -22.73946,0.05631 1.143178,8.031868 20.964172,8.131225 22.73946,-0.05631 z"
               transform="translate(10.496928,-27.294328)" />
            <path
               sodipodi:nodetypes="ccc"
               style="fill:currentColor;stroke:currentColor;stroke-width:0.1;stroke-linecap:round;stroke-linejoin:round"
               inkscape:connector-curvature="0"
               id="path116-9-0-3"
               d="m 40.213497,12.52916 c -1.645707,8.249619 -21.921088,8.132052 -22.73946,0.05631 1.143178,8.031868 20.964173,8.131225 22.73946,-0.05631 z"
               transform="translate(10.496928,-27.294328)" />
            <text
               style="font-size:1.74549997px;font-style:normal;font-variant:normal;font-weight:normal;font-stretch:normal;text-anchor:start;fill:currentColor;font-family:Sans;-inkscape-font-specification:Sans"
               y="-16.873493"
               x="12.815668"
               id="text112-8-7"
               font-size="1.7455">
              <tspan
                 style="font-size:1.92720044px;font-style:normal;font-variant:normal;font-weight:normal;font-stretch:normal;font-family:Sans;-inkscape-font-specification:Sans"
                 id="tspan114-9-3">Exemple :</tspan>
            </text>
          </g>
          <text
             sodipodi:linespacing="125%"
             id="text3040-06-6"
             y="16.535734"
             x="28.486713"
             style="font-size:1.28480029px;font-style:normal;font-weight:normal;line-height:125%;letter-spacing:0px;word-spacing:0px;fill:#000000;fill-opacity:1;stroke:none;font-family:Sans"
             xml:space="preserve"><tspan
               y="16.535734"
               x="28.486713"
               id="tspan3042-8-5"
               sodipodi:role="line" /></text>
        </g>
      </g>
    </g>
  </g>
</svg>
