<?xml version="1.0" encoding="UTF-8" standalone="no"?>
<svg
   xmlns:dc="http://purl.org/dc/elements/1.1/"
   xmlns:cc="http://creativecommons.org/ns#"
   xmlns:rdf="http://www.w3.org/1999/02/22-rdf-syntax-ns#"
   xmlns:svg="http://www.w3.org/2000/svg"
   xmlns="http://www.w3.org/2000/svg"
   xmlns:sodipodi="http://sodipodi.sourceforge.net/DTD/sodipodi-0.dtd"
   xmlns:inkscape="http://www.inkscape.org/namespaces/inkscape"
   version="1.2"
   width="45.732243"
   height="25.230379"
   viewBox="0 0 7.3446001 4.0519997"
   id="svg2"
   inkscape:version="0.48.5 r10040"
   sodipodi:docname="Figure rythmique blanche pointée.svg">
  <metadata
     id="metadata48">
    <rdf:RDF>
      <cc:Work
         rdf:about="">
        <dc:format>image/svg+xml</dc:format>
        <dc:type
           rdf:resource="http://purl.org/dc/dcmitype/StillImage" />
        <dc:title></dc:title>
      </cc:Work>
    </rdf:RDF>
  </metadata>
  <defs
     id="defs46" />
  <sodipodi:namedview
     pagecolor="#ffffff"
     bordercolor="#666666"
     borderopacity="1"
     objecttolerance="10"
     gridtolerance="10"
     guidetolerance="10"
     inkscape:pageopacity="0"
     inkscape:pageshadow="2"
     inkscape:window-width="1920"
     inkscape:window-height="1018"
     id="namedview44"
     showgrid="false"
     fit-margin-top="0"
     fit-margin-left="0"
     fit-margin-right="0"
     fit-margin-bottom="0"
     inkscape:zoom="2.8284271"
     inkscape:cx="76.048019"
     inkscape:cy="61.488461"
     inkscape:window-x="-8"
     inkscape:window-y="-8"
     inkscape:window-maximized="1"
     inkscape:current-layer="svg2" />
  <!-- Page: 1/1 -->
  <text
     transform="translate(-15.5258,-1.0000001)"
     font-size="2.1995"
     id="text4"
     style="font-size:2.19950008px;text-anchor:start;fill:currentColor;font-family:Century Schoolbook L">
    <tspan
       id="tspan6" />
  </text>
  <path
     transform="matrix(0.004,0,0,-0.004,0,3.4999999)"
     d="m 220,138 c 56,0 109,-29 109,-91 0,-72 -56,-121 -103,-149 -36,-21 -76,-36 -117,-36 -56,0 -109,29 -109,91 0,72 56,121 103,149 36,21 76,36 117,36 z"
     id="path24"
     inkscape:connector-curvature="0"
     style="fill:currentColor" />
  <rect
     transform="translate(1.2511,2.9999999)"
     x="-0.064999998"
     y="-3"
     width="0.13"
     height="3.3122001"
     ry="0.039999999"
     id="rect26"
     style="fill:currentColor" />
  <path
     transform="matrix(0.004,0,0,-0.004,3.0142,3.4999999)"
     d="m 220,138 c 56,0 109,-29 109,-91 0,-72 -56,-121 -103,-149 -36,-21 -76,-36 -117,-36 -56,0 -109,29 -109,91 0,72 56,121 103,149 36,21 76,36 117,36 z"
     id="path28"
     inkscape:connector-curvature="0"
     style="fill:currentColor" />
  <rect
     transform="translate(4.2654,2.9999999)"
     x="-0.064999998"
     y="-3"
     width="0.13"
     height="3.3122001"
     ry="0.039999999"
     id="rect30"
     style="fill:currentColor" />
  <path
     transform="matrix(0.004,0,0,-0.004,6.0284,3.4999999)"
     d="m 220,138 c 56,0 109,-29 109,-91 0,-72 -56,-121 -103,-149 -36,-21 -76,-36 -117,-36 -56,0 -109,29 -109,91 0,72 56,121 103,149 36,21 76,36 117,36 z"
     id="path32"
     inkscape:connector-curvature="0"
     style="fill:currentColor" />
  <rect
     transform="translate(7.2796,2.9999999)"
     x="-0.064999998"
     y="-3"
     width="0.13"
     height="3.3122001"
     ry="0.039999999"
     id="rect34"
     style="fill:currentColor" />
</svg>
